ExploreSerif_ExtraThin.ufo
<glyph name="comma" format="2">
  <advance width="145"/>
  <unicode hex="002C"/>
  <outline>
    <contour>
      <point x="70" y="-143" type="curve"/>
      <point x="59" y="-143" type="line"/>
      <point x="92" y="56" type="line"/>
      <point x="28" y="58" type="line"/>
      <point x="30" y="82" type="line"/>
      <point x="113" y="82" type="line"/>
      <point x="113" y="31"/>
      <point x="106" y="-67"/>
    </contour>
  </outline>
</glyph>
<glyph name="zero" format="2">
  <advance width="550"/>
  <unicode hex="0030"/>
  <outline>
    <contour>
      <point x="274" y="690" type="curve" smooth="yes"/>
      <point x="133" y="690"/>
      <point x="96" y="542"/>
      <point x="96" y="359" type="curve" smooth="yes"/>
      <point x="96" y="158"/>
      <point x="134" y="18"/>
      <point x="272" y="18" type="curve" smooth="yes"/>
      <point x="413" y="18"/>
      <point x="454" y="157"/>
      <point x="454" y="359" type="curve" smooth="yes"/>
      <point x="454" y="544"/>
      <point x="414" y="690"/>
    </contour>
    <contour>
      <point x="274" y="716" type="curve" smooth="yes"/>
      <point x="440" y="716"/>
      <point x="486" y="562"/>
      <point x="486" y="359" type="curve" smooth="yes"/>
      <point x="486" y="140"/>
      <point x="440" y="-8"/>
      <point x="273" y="-8" type="curve" smooth="yes"/>
      <point x="107" y="-8"/>
      <point x="64" y="151"/>
      <point x="64" y="359" type="curve" smooth="yes"/>
      <point x="64" y="564"/>
      <point x="108" y="716"/>
    </contour>
  </outline>
</glyph>
<glyph name="two" format="2">
  <advance width="550"/>
  <unicode hex="0032"/>
  <outline>
    <contour>
      <point x="73" y="644" type="line"/>
      <point x="130" y="701"/>
      <point x="181" y="716"/>
      <point x="251" y="716" type="curve" smooth="yes"/>
      <point x="384" y="716"/>
      <point x="464" y="640"/>
      <point x="464" y="524" type="curve" smooth="yes"/>
      <point x="464" y="432"/>
      <point x="384" y="344"/>
      <point x="320" y="271" type="curve" smooth="yes"/>
      <point x="113" y="32" type="line"/>
      <point x="446" y="32" type="line"/>
      <point x="463" y="104" type="line"/>
      <point x="465" y="117"/>
      <point x="470" y="123"/>
      <point x="481" y="123" type="curve"/>
      <point x="488" y="124" type="line"/>
      <point x="472" y="0" type="line"/>
      <point x="73" y="0" type="line"/>
      <point x="73" y="21" type="line"/>
      <point x="286" y="274" type="line" smooth="yes"/>
      <point x="351" y="351"/>
      <point x="432" y="428"/>
      <point x="432" y="524" type="curve" smooth="yes"/>
      <point x="432" y="636"/>
      <point x="354" y="694"/>
      <point x="251" y="694" type="curve" smooth="yes"/>
      <point x="181" y="694"/>
      <point x="126" y="666"/>
      <point x="86" y="617" type="curve"/>
    </contour>
  </outline>
</glyph>
<glyph name="six" format="2">
  <advance width="550"/>
  <unicode hex="0036"/>
  <outline>
    <contour>
      <point x="363" y="719" type="curve"/>
      <point x="368" y="700" type="line"/>
      <point x="237" y="669"/>
      <point x="101" y="519"/>
      <point x="101" y="321" type="curve"/>
      <point x="130" y="378"/>
      <point x="179" y="443"/>
      <point x="290" y="443" type="curve" smooth="yes"/>
      <point x="403" y="443"/>
      <point x="486" y="366"/>
      <point x="486" y="223" type="curve" smooth="yes"/>
      <point x="486" y="88"/>
      <point x="403" y="-8"/>
      <point x="280" y="-8" type="curve" smooth="yes"/>
      <point x="140" y="-8"/>
      <point x="70" y="83"/>
      <point x="70" y="302" type="curve" smooth="yes"/>
      <point x="70" y="527"/>
      <point x="210" y="683"/>
    </contour>
    <contour>
      <point x="278" y="421" type="curve" smooth="yes"/>
      <point x="180" y="421"/>
      <point x="102" y="329"/>
      <point x="102" y="223" type="curve" smooth="yes"/>
      <point x="102" y="101"/>
      <point x="167" y="14"/>
      <point x="278" y="14" type="curve" smooth="yes"/>
      <point x="384" y="14"/>
      <point x="454" y="100"/>
      <point x="454" y="223" type="curve" smooth="yes"/>
      <point x="454" y="344"/>
      <point x="385" y="421"/>
    </contour>
  </outline>
</glyph>
<glyph name="D" format="2">
  <advance width="618"/>
  <unicode hex="0044"/>
  <outline>
    <contour>
      <point x="40" y="708" type="line"/>
      <point x="267" y="708" type="line" smooth="yes"/>
      <point x="450" y="708"/>
      <point x="554" y="585"/>
      <point x="554" y="361" type="curve" smooth="yes"/>
      <point x="554" y="124"/>
      <point x="452" y="0"/>
      <point x="263" y="0" type="curve" smooth="yes"/>
      <point x="40" y="0" type="line"/>
      <point x="40" y="26" type="line"/>
      <point x="97" y="26" type="line"/>
      <point x="97" y="682" type="line"/>
      <point x="40" y="682" type="line"/>
    </contour>
    <contour>
      <point x="130" y="682" type="line"/>
      <point x="130" y="26" type="line"/>
      <point x="265" y="26" type="line" smooth="yes"/>
      <point x="444" y="26"/>
      <point x="522" y="163"/>
      <point x="522" y="361" type="curve" smooth="yes"/>
      <point x="522" y="546"/>
      <point x="442" y="682"/>
      <point x="267" y="682" type="curve" smooth="yes"/>
    </contour>
  </outline>
</glyph>
<glyph name="G" format="2">
  <advance width="620"/>
  <unicode hex="0047"/>
  <outline>
    <contour>
      <point x="363" y="716" type="curve" smooth="yes"/>
      <point x="441" y="716"/>
      <point x="503" y="696"/>
      <point x="553" y="660" type="curve"/>
      <point x="546" y="572" type="line" smooth="yes"/>
      <point x="545" y="562"/>
      <point x="541" y="559"/>
      <point x="533" y="559" type="curve" smooth="yes"/>
      <point x="530" y="559" type="line"/>
      <point x="512" y="654" type="line"/>
      <point x="471" y="682"/>
      <point x="423" y="690"/>
      <point x="362" y="690" type="curve" smooth="yes"/>
      <point x="191" y="690"/>
      <point x="96" y="553"/>
      <point x="96" y="352" type="curve" smooth="yes"/>
      <point x="96" y="112"/>
      <point x="221" y="18"/>
      <point x="380" y="18" type="curve" smooth="yes"/>
      <point x="434" y="18"/>
      <point x="481" y="27"/>
      <point x="510" y="37" type="curve"/>
      <point x="510" y="360" type="line"/>
      <point x="328" y="360" type="line"/>
      <point x="328" y="386" type="line"/>
      <point x="582" y="386" type="line"/>
      <point x="577" y="360" type="line"/>
      <point x="543" y="360" type="line"/>
      <point x="543" y="25" type="line"/>
      <point x="487" y="5"/>
      <point x="453" y="-8"/>
      <point x="373" y="-8" type="curve" smooth="yes"/>
      <point x="197" y="-8"/>
      <point x="64" y="91"/>
      <point x="64" y="352" type="curve" smooth="yes"/>
      <point x="64" y="571"/>
      <point x="171" y="716"/>
    </contour>
  </outline>
</glyph>
<glyph name="N" format="2">
  <advance width="681"/>
  <unicode hex="004E"/>
  <outline>
    <contour>
      <point x="40" y="708" type="line"/>
      <point x="145" y="708" type="line"/>
      <point x="535" y="65" type="line"/>
      <point x="535" y="682" type="line"/>
      <point x="461" y="682" type="line"/>
      <point x="461" y="708" type="line"/>
      <point x="641" y="708" type="line"/>
      <point x="641" y="682" type="line"/>
      <point x="567" y="682" type="line"/>
      <point x="567" y="13" type="line"/>
      <point x="537" y="0" type="line"/>
      <point x="146" y="646" type="line"/>
      <point x="146" y="26" type="line"/>
      <point x="220" y="26" type="line"/>
      <point x="220" y="0" type="line"/>
      <point x="40" y="0" type="line"/>
      <point x="40" y="26" type="line"/>
      <point x="114" y="26" type="line"/>
      <point x="114" y="682" type="line"/>
      <point x="40" y="682" type="line"/>
    </contour>
  </outline>
</glyph>
<glyph name="O" format="2">
  <advance width="632"/>
  <unicode hex="004F"/>
  <anchor x="326" y="881" name="AccentCenter"/>
  <outline>
    <contour>
      <point x="318" y="716" type="curve" smooth="yes"/>
      <point x="479" y="716"/>
      <point x="568" y="579"/>
      <point x="568" y="354" type="curve" smooth="yes"/>
      <point x="568" y="128"/>
      <point x="479" y="-8"/>
      <point x="318" y="-8" type="curve" smooth="yes"/>
      <point x="156" y="-8"/>
      <point x="64" y="128"/>
      <point x="64" y="354" type="curve" smooth="yes"/>
      <point x="64" y="579"/>
      <point x="156" y="716"/>
    </contour>
    <contour>
      <point x="318" y="690" type="curve" smooth="yes"/>
      <point x="172" y="690"/>
      <point x="96" y="552"/>
      <point x="96" y="354" type="curve" smooth="yes"/>
      <point x="96" y="155"/>
      <point x="172" y="18"/>
      <point x="318" y="18" type="curve" smooth="yes"/>
      <point x="463" y="18"/>
      <point x="536" y="151"/>
      <point x="536" y="354" type="curve" smooth="yes"/>
      <point x="536" y="557"/>
      <point x="463" y="690"/>
    </contour>
  </outline>
</glyph>
<glyph name="P" format="2">
  <advance width="570"/>
  <unicode hex="0050"/>
  <outline>
    <contour>
      <point x="40" y="708" type="line"/>
      <point x="302" y="708" type="line" smooth="yes"/>
      <point x="413" y="708"/>
      <point x="508" y="638"/>
      <point x="508" y="505" type="curve" smooth="yes"/>
      <point x="508" y="353"/>
      <point x="414" y="283"/>
      <point x="285" y="283" type="curve" smooth="yes"/>
      <point x="120" y="283" type="line"/>
      <point x="120" y="22" type="line"/>
      <point x="168" y="22" type="line"/>
      <point x="168" y="0" type="line"/>
      <point x="40" y="0" type="line"/>
      <point x="40" y="22" type="line"/>
      <point x="88" y="22" type="line"/>
      <point x="88" y="682" type="line"/>
      <point x="40" y="682" type="line"/>
    </contour>
    <contour>
      <point x="120" y="682" type="line"/>
      <point x="120" y="309" type="line"/>
      <point x="285" y="309" type="line" smooth="yes"/>
      <point x="390" y="309"/>
      <point x="476" y="360"/>
      <point x="476" y="505" type="curve" smooth="yes"/>
      <point x="476" y="626"/>
      <point x="387" y="682"/>
      <point x="302" y="682" type="curve" smooth="yes"/>
    </contour>
  </outline>
</glyph>
<glyph name="S" format="2">
  <advance width="588"/>
  <unicode hex="0053"/>
  <outline>
    <contour>
      <point x="310" y="716" type="curve" smooth="yes"/>
      <point x="377" y="716"/>
      <point x="447" y="701"/>
      <point x="506" y="664" type="curve"/>
      <point x="499" y="560" type="line" smooth="yes"/>
      <point x="498" y="550"/>
      <point x="494" y="547"/>
      <point x="486" y="547" type="curve" smooth="yes"/>
      <point x="483" y="547" type="line"/>
      <point x="464" y="656" type="line"/>
      <point x="409" y="683"/>
      <point x="361" y="690"/>
      <point x="307" y="690" type="curve" smooth="yes"/>
      <point x="194" y="690"/>
      <point x="123" y="627"/>
      <point x="123" y="538" type="curve" smooth="yes"/>
      <point x="123" y="471"/>
      <point x="143" y="420"/>
      <point x="254" y="388" type="curve" smooth="yes"/>
      <point x="367" y="356" type="line" smooth="yes"/>
      <point x="455" y="330"/>
      <point x="523" y="276"/>
      <point x="523" y="170" type="curve" smooth="yes"/>
      <point x="523" y="61"/>
      <point x="436" y="-8"/>
      <point x="301" y="-8" type="curve" smooth="yes"/>
      <point x="202" y="-8"/>
      <point x="140" y="8"/>
      <point x="54" y="63" type="curve"/>
      <point x="61" y="166" type="line" smooth="yes"/>
      <point x="62" y="176"/>
      <point x="66" y="179"/>
      <point x="74" y="179" type="curve" smooth="yes"/>
      <point x="77" y="179" type="line"/>
      <point x="98" y="70" type="line"/>
      <point x="161" y="30"/>
      <point x="236" y="18"/>
      <point x="303" y="18" type="curve" smooth="yes"/>
      <point x="417" y="18"/>
      <point x="491" y="74"/>
      <point x="491" y="173" type="curve" smooth="yes"/>
      <point x="491" y="259"/>
      <point x="435" y="305"/>
      <point x="357" y="327" type="curve" smooth="yes"/>
      <point x="245" y="358" type="line" smooth="yes"/>
      <point x="131" y="390"/>
      <point x="91" y="457"/>
      <point x="91" y="537" type="curve" smooth="yes"/>
      <point x="91" y="641"/>
      <point x="173" y="716"/>
    </contour>
  </outline>
</glyph>
<glyph name="W" format="2">
  <advance width="882"/>
  <unicode hex="0057"/>
  <outline>
    <contour>
      <point x="4" y="708" type="line"/>
      <point x="163" y="708" type="line"/>
      <point x="163" y="682" type="line"/>
      <point x="100" y="682" type="line"/>
      <point x="271" y="32" type="line"/>
      <point x="442" y="682" type="line"/>
      <point x="377" y="682" type="line"/>
      <point x="377" y="708" type="line"/>
      <point x="528" y="708" type="line"/>
      <point x="528" y="682" type="line"/>
      <point x="470" y="682" type="line"/>
      <point x="641" y="32" type="line"/>
      <point x="792" y="682" type="line"/>
      <point x="727" y="682" type="line"/>
      <point x="727" y="708" type="line"/>
      <point x="878" y="708" type="line"/>
      <point x="878" y="682" type="line"/>
      <point x="820" y="682" type="line"/>
      <point x="658" y="0" type="line"/>
      <point x="616" y="0" type="line"/>
      <point x="454" y="621" type="line"/>
      <point x="288" y="0" type="line"/>
      <point x="246" y="0" type="line"/>
      <point x="65" y="682" type="line"/>
      <point x="4" y="682" type="line"/>
    </contour>
  </outline>
</glyph>
<glyph name="X" format="2">
  <advance width="564"/>
  <unicode hex="0058"/>
  <outline>
    <contour>
      <point x="43" y="708" type="line"/>
      <point x="481" y="0" type="line"/>
      <point x="521" y="0" type="line"/>
      <point x="83" y="708" type="line"/>
    </contour>
    <contour>
      <point x="4" y="708" type="line"/>
      <point x="4" y="682" type="line"/>
      <point x="168" y="682" type="line"/>
      <point x="168" y="708" type="line"/>
    </contour>
    <contour>
      <point x="396" y="26" type="line"/>
      <point x="396" y="0" type="line"/>
      <point x="560" y="0" type="line"/>
      <point x="560" y="26" type="line"/>
    </contour>
    <contour>
      <point x="481" y="708" type="line"/>
      <point x="45" y="0" type="line"/>
      <point x="81" y="0" type="line"/>
      <point x="517" y="708" type="line"/>
    </contour>
    <contour>
      <point x="4" y="26" type="line"/>
      <point x="4" y="0" type="line"/>
      <point x="168" y="0" type="line"/>
      <point x="168" y="26" type="line"/>
    </contour>
    <contour>
      <point x="396" y="708" type="line"/>
      <point x="396" y="682" type="line"/>
      <point x="560" y="682" type="line"/>
      <point x="560" y="708" type="line"/>
    </contour>
  </outline>
</glyph>
<glyph name="d" format="2">
  <advance width="584"/>
  <unicode hex="0064"/>
  <outline>
    <contour>
      <point x="368" y="716" type="line"/>
      <point x="364" y="690" type="line"/>
      <point x="438" y="690" type="line"/>
      <point x="438" y="471" type="line"/>
      <point x="413" y="496"/>
      <point x="365" y="528"/>
      <point x="278" y="528" type="curve" smooth="yes"/>
      <point x="144" y="528"/>
      <point x="64" y="429"/>
      <point x="64" y="261" type="curve" smooth="yes"/>
      <point x="64" y="105"/>
      <point x="135" y="-8"/>
      <point x="274" y="-8" type="curve" smooth="yes"/>
      <point x="370" y="-8"/>
      <point x="415" y="41"/>
      <point x="439" y="86" type="curve"/>
      <point x="446" y="0" type="line"/>
      <point x="544" y="0" type="line"/>
      <point x="544" y="26" type="line"/>
      <point x="470" y="26" type="line"/>
      <point x="470" y="716" type="line"/>
    </contour>
    <contour>
      <point x="279" y="502" type="curve" smooth="yes"/>
      <point x="356" y="502"/>
      <point x="404" y="474"/>
      <point x="438" y="438" type="curve"/>
      <point x="438" y="138" type="line"/>
      <point x="425" y="93"/>
      <point x="370" y="18"/>
      <point x="274" y="18" type="curve" smooth="yes"/>
      <point x="155" y="18"/>
      <point x="96" y="118"/>
      <point x="96" y="259" type="curve" smooth="yes"/>
      <point x="96" y="414"/>
      <point x="157" y="502"/>
    </contour>
  </outline>
</glyph>
<glyph name="e" format="2">
  <advance width="524"/>
  <unicode hex="0065"/>
  <anchor x="274" y="687" name="AccentCenter"/>
  <outline>
    <contour>
      <point x="268" y="528" type="curve" smooth="yes"/>
      <point x="381" y="528"/>
      <point x="459" y="440"/>
      <point x="459" y="302" type="curve" smooth="yes"/>
      <point x="459" y="287"/>
      <point x="456.229" y="262.831"/>
      <point x="455" y="257" type="curve"/>
      <point x="98" y="257" type="line"/>
      <point x="98" y="117"/>
      <point x="162" y="18"/>
      <point x="283" y="18" type="curve" smooth="yes"/>
      <point x="352" y="18"/>
      <point x="398" y="37"/>
      <point x="441" y="64" type="curve"/>
      <point x="454" y="40" type="line"/>
      <point x="413" y="19"/>
      <point x="374" y="-8"/>
      <point x="281" y="-8" type="curve" smooth="yes"/>
      <point x="144" y="-8"/>
      <point x="64" y="91"/>
      <point x="64" y="268" type="curve" smooth="yes"/>
      <point x="64" y="433"/>
      <point x="142" y="528"/>
    </contour>
    <contour>
      <point x="268" y="502" type="curve" smooth="yes"/>
      <point x="166" y="502"/>
      <point x="98" y="422"/>
      <point x="98" y="283" type="curve"/>
      <point x="427" y="283" type="line"/>
      <point x="427" y="322" type="line" smooth="yes"/>
      <point x="427" y="425"/>
      <point x="359" y="502"/>
    </contour>
  </outline>
</glyph>
<glyph name="f" format="2">
  <advance width="319"/>
  <unicode hex="0066"/>
  <outline>
    <contour>
      <point x="258" y="732" type="curve" smooth="yes"/>
      <point x="286" y="732"/>
      <point x="306" y="727"/>
      <point x="322" y="722" type="curve"/>
      <point x="319" y="697" type="line"/>
      <point x="257" y="708" type="line"/>
      <point x="191" y="708"/>
      <point x="148" y="656"/>
      <point x="148" y="598" type="curve" smooth="yes"/>
      <point x="148" y="520" type="line"/>
      <point x="247" y="520" type="line"/>
      <point x="247" y="494" type="line"/>
      <point x="148" y="494" type="line"/>
      <point x="148" y="26" type="line"/>
      <point x="231" y="26" type="line"/>
      <point x="231" y="0" type="line"/>
      <point x="38" y="0" type="line"/>
      <point x="38" y="26" type="line"/>
      <point x="116" y="26" type="line"/>
      <point x="116" y="494" type="line"/>
      <point x="16" y="494" type="line"/>
      <point x="16" y="520" type="line"/>
      <point x="116" y="520" type="line"/>
      <point x="116" y="574" type="line" smooth="yes"/>
      <point x="116" y="671"/>
      <point x="163" y="732"/>
    </contour>
  </outline>
</glyph>
<glyph name="g" format="2">
  <advance width="535"/>
  <unicode hex="0067"/>
  <outline>
    <contour>
      <point x="241" y="528" type="curve" smooth="yes"/>
      <point x="295" y="528"/>
      <point x="359" y="512"/>
      <point x="397" y="434" type="curve"/>
      <point x="397" y="482"/>
      <point x="429" y="521"/>
      <point x="468" y="528" type="curve"/>
      <point x="519" y="518" type="line"/>
      <point x="515" y="491" type="line"/>
      <point x="465" y="502" type="line"/>
      <point x="423" y="486"/>
      <point x="414" y="445"/>
      <point x="414" y="414" type="curve" smooth="yes"/>
      <point x="414" y="359" type="line" smooth="yes"/>
      <point x="414" y="267"/>
      <point x="345" y="202"/>
      <point x="241" y="202" type="curve" smooth="yes"/>
      <point x="200" y="202"/>
      <point x="173" y="211"/>
      <point x="173" y="211" type="curve"/>
      <point x="93" y="110" type="line"/>
      <point x="367" y="77" type="line" smooth="yes"/>
      <point x="439" y="68"/>
      <point x="490" y="29"/>
      <point x="490" y="-51" type="curve" smooth="yes"/>
      <point x="490" y="-134"/>
      <point x="411" y="-192"/>
      <point x="284" y="-192" type="curve" smooth="yes"/>
      <point x="177" y="-192"/>
      <point x="118" y="-166"/>
      <point x="48" y="-120" type="curve"/>
      <point x="48" y="-100" type="line"/>
      <point x="165" y="69" type="line"/>
      <point x="56" y="82" type="line"/>
      <point x="56" y="101" type="line"/>
      <point x="147" y="220" type="line"/>
      <point x="92" y="254"/>
      <point x="65" y="288"/>
      <point x="65" y="359" type="curve" smooth="yes"/>
      <point x="65" y="461"/>
      <point x="138" y="528"/>
    </contour>
    <contour>
      <point x="193" y="65" type="line"/>
      <point x="76" y="-108" type="line"/>
      <point x="132" y="-143"/>
      <point x="198" y="-166"/>
      <point x="286" y="-166" type="curve" smooth="yes"/>
      <point x="386" y="-166"/>
      <point x="457" y="-130"/>
      <point x="457" y="-56" type="curve" smooth="yes"/>
      <point x="457" y="7"/>
      <point x="421" y="37"/>
      <point x="357" y="45" type="curve" smooth="yes"/>
    </contour>
    <contour>
      <point x="241" y="502" type="curve" smooth="yes"/>
      <point x="158" y="502"/>
      <point x="97" y="452"/>
      <point x="97" y="359" type="curve" smooth="yes"/>
      <point x="97" y="270"/>
      <point x="158" y="228"/>
      <point x="241" y="228" type="curve" smooth="yes"/>
      <point x="322" y="228"/>
      <point x="382" y="271"/>
      <point x="382" y="359" type="curve" smooth="yes"/>
      <point x="382" y="451"/>
      <point x="322" y="502"/>
    </contour>
  </outline>
</glyph>
<glyph name="h" format="2">
  <advance width="560"/>
  <unicode hex="0068"/>
  <outline>
    <contour>
      <point x="44" y="689" type="line"/>
      <point x="136" y="716" type="line"/>
      <point x="136" y="440" type="line"/>
      <point x="171" y="495"/>
      <point x="234" y="528"/>
      <point x="299" y="528" type="curve" smooth="yes"/>
      <point x="402" y="528"/>
      <point x="456" y="459"/>
      <point x="456" y="329" type="curve" smooth="yes"/>
      <point x="456" y="26" type="line"/>
      <point x="520" y="26" type="line"/>
      <point x="520" y="0" type="line"/>
      <point x="369" y="0" type="line"/>
      <point x="369" y="26" type="line"/>
      <point x="425" y="26" type="line"/>
      <point x="425" y="334" type="line" smooth="yes"/>
      <point x="425" y="445"/>
      <point x="381" y="502"/>
      <point x="293" y="502" type="curve" smooth="yes"/>
      <point x="226" y="502"/>
      <point x="174" y="461"/>
      <point x="136" y="407" type="curve"/>
      <point x="136" y="0" type="line"/>
      <point x="40" y="0" type="line"/>
      <point x="40" y="26" type="line"/>
      <point x="104" y="26" type="line"/>
      <point x="104" y="681" type="line"/>
      <point x="44" y="665" type="line"/>
    </contour>
  </outline>
</glyph>
<glyph name="i" format="2">
  <advance width="243"/>
  <unicode hex="0069"/>
  <outline>
    <contour>
      <point x="121" y="731" type="curve" smooth="yes"/>
      <point x="143" y="731"/>
      <point x="159" y="714"/>
      <point x="159" y="692" type="curve" smooth="yes"/>
      <point x="159" y="670"/>
      <point x="143" y="654"/>
      <point x="121" y="654" type="curve" smooth="yes"/>
      <point x="99" y="654"/>
      <point x="82" y="670"/>
      <point x="82" y="692" type="curve" smooth="yes"/>
      <point x="82" y="714"/>
      <point x="99" y="731"/>
    </contour>
    <component base="dotlessi"/>
  </outline>
</glyph>
<glyph name="j" format="2">
  <advance width="230"/>
  <unicode hex="006A"/>
  <outline>
    <contour>
      <point x="40" y="520" type="line"/>
      <point x="146" y="520" type="line"/>
      <point x="146" y="-67" type="line" smooth="yes"/>
      <point x="146" y="-137"/>
      <point x="100" y="-191"/>
      <point x="12" y="-191" type="curve" smooth="yes"/>
      <point x="10" y="-191" type="line"/>
      <point x="10" y="-163" type="line"/>
      <point x="12" y="-163" type="line" smooth="yes"/>
      <point x="83" y="-163"/>
      <point x="114" y="-128"/>
      <point x="114" y="-73" type="curve" smooth="yes"/>
      <point x="114" y="494" type="line"/>
      <point x="40" y="494" type="line"/>
    </contour>
    <contour>
      <point x="127" y="731" type="curve" smooth="yes"/>
      <point x="147" y="731"/>
      <point x="166" y="717"/>
      <point x="166" y="692" type="curve" smooth="yes"/>
      <point x="166" y="665"/>
      <point x="147" y="653"/>
      <point x="127" y="653" type="curve" smooth="yes"/>
      <point x="107" y="653"/>
      <point x="89" y="666"/>
      <point x="89" y="692" type="curve" smooth="yes"/>
      <point x="89" y="717"/>
      <point x="107" y="731"/>
    </contour>
  </outline>
</glyph>
<glyph name="k" format="2">
  <advance width="509"/>
  <unicode hex="006B"/>
  <outline>
    <contour>
      <point x="40" y="708" type="line"/>
      <point x="145" y="708" type="line"/>
      <point x="145" y="268" type="line"/>
      <point x="379" y="494" type="line"/>
      <point x="314" y="494" type="line"/>
      <point x="314" y="520" type="line"/>
      <point x="457" y="520" type="line"/>
      <point x="457" y="494" type="line"/>
      <point x="413" y="494" type="line"/>
      <point x="178" y="271" type="line"/>
      <point x="418" y="26" type="line"/>
      <point x="479" y="26" type="line"/>
      <point x="479" y="0" type="line"/>
      <point x="389" y="0" type="line"/>
      <point x="146" y="254" type="line"/>
      <point x="145" y="254" type="line"/>
      <point x="145" y="26" type="line"/>
      <point x="219" y="26" type="line"/>
      <point x="219" y="0" type="line"/>
      <point x="40" y="0" type="line"/>
      <point x="40" y="26" type="line"/>
      <point x="114" y="26" type="line"/>
      <point x="114" y="682" type="line"/>
      <point x="40" y="682" type="line"/>
    </contour>
  </outline>
</glyph>
<glyph name="l" format="2">
  <advance width="251"/>
  <unicode hex="006C"/>
  <outline>
    <contour>
      <point x="28" y="772" type="line"/>
      <point x="137" y="772" type="line"/>
      <point x="137" y="26" type="line"/>
      <point x="211" y="26" type="line"/>
      <point x="211" y="0" type="line"/>
      <point x="105" y="0" type="line"/>
      <point x="105" y="744" type="line"/>
      <point x="28" y="744" type="line"/>
    </contour>
  </outline>
</glyph>
<glyph name="p" format="2">
  <advance width="600"/>
  <unicode hex="0070"/>
  <outline>
    <contour>
      <point x="40" y="520" type="line"/>
      <point x="138" y="520" type="line"/>
      <point x="145" y="434" type="line"/>
      <point x="169" y="479"/>
      <point x="225" y="528"/>
      <point x="321" y="528" type="curve" smooth="yes"/>
      <point x="460" y="528"/>
      <point x="535" y="407"/>
      <point x="535" y="251" type="curve" smooth="yes"/>
      <point x="535" y="83"/>
      <point x="432" y="-8"/>
      <point x="307" y="-8" type="curve" smooth="yes"/>
      <point x="220" y="-8"/>
      <point x="174" y="37"/>
      <point x="146" y="82" type="curve"/>
      <point x="146" y="-192" type="line"/>
      <point x="40" y="-192" type="line"/>
      <point x="40" y="-166" type="line"/>
      <point x="114" y="-166" type="line"/>
      <point x="114" y="494" type="line"/>
      <point x="40" y="494" type="line"/>
    </contour>
    <contour>
      <point x="146" y="382" type="curve"/>
      <point x="146" y="137" type="line"/>
      <point x="156" y="77"/>
      <point x="222" y="18"/>
      <point x="299" y="18" type="curve" smooth="yes"/>
      <point x="421" y="18"/>
      <point x="503" y="98"/>
      <point x="503" y="253" type="curve" smooth="yes"/>
      <point x="503" y="394"/>
      <point x="440" y="502"/>
      <point x="321" y="502" type="curve" smooth="yes"/>
      <point x="225" y="502"/>
      <point x="159" y="427"/>
    </contour>
  </outline>
</glyph>
<glyph name="q" format="2">
  <advance width="584"/>
  <unicode hex="0071"/>
  <outline>
    <contour>
      <point x="437" y="440" type="curve"/>
      <point x="438" y="93" type="line"/>
      <point x="409" y="54"/>
      <point x="362" y="18"/>
      <point x="285" y="18" type="curve" smooth="yes"/>
      <point x="163" y="18"/>
      <point x="96" y="98"/>
      <point x="96" y="253" type="curve" smooth="yes"/>
      <point x="96" y="394"/>
      <point x="156" y="502"/>
      <point x="275" y="502" type="curve" smooth="yes"/>
      <point x="343" y="502"/>
      <point x="390" y="479"/>
    </contour>
    <contour>
      <point x="273" y="528" type="curve" smooth="yes"/>
      <point x="134" y="528"/>
      <point x="64" y="407"/>
      <point x="64" y="251" type="curve" smooth="yes"/>
      <point x="64" y="83"/>
      <point x="152" y="-8"/>
      <point x="277" y="-8" type="curve" smooth="yes"/>
      <point x="364" y="-8"/>
      <point x="403" y="18"/>
      <point x="438" y="56" type="curve"/>
      <point x="438" y="-192" type="line"/>
      <point x="544" y="-192" type="line"/>
      <point x="544" y="-166" type="line"/>
      <point x="470" y="-166" type="line"/>
      <point x="470" y="454" type="line"/>
      <point x="544" y="492" type="line"/>
      <point x="544" y="520" type="line"/>
      <point x="507" y="513"/>
      <point x="472" y="490"/>
      <point x="448" y="465" type="curve"/>
      <point x="396" y="505"/>
      <point x="348" y="528"/>
    </contour>
  </outline>
</glyph>
<glyph name="r" format="2">
  <advance width="363"/>
  <unicode hex="0072"/>
  <outline>
    <contour>
      <point x="138" y="528" type="line"/>
      <point x="138" y="427" type="line"/>
      <point x="154" y="477"/>
      <point x="230" y="528"/>
      <point x="303" y="528" type="curve" smooth="yes"/>
      <point x="311" y="528"/>
      <point x="325" y="527"/>
      <point x="335" y="524" type="curve"/>
      <point x="334" y="502" type="line"/>
      <point x="303" y="502" type="line"/>
      <point x="216" y="502"/>
      <point x="160" y="438"/>
      <point x="138" y="383" type="curve"/>
      <point x="138" y="26" type="line"/>
      <point x="212" y="26" type="line"/>
      <point x="212" y="0" type="line"/>
      <point x="32" y="0" type="line"/>
      <point x="32" y="26" type="line"/>
      <point x="106" y="26" type="line"/>
      <point x="106" y="494" type="line"/>
      <point x="32" y="480" type="line"/>
      <point x="32" y="509" type="line"/>
    </contour>
  </outline>
</glyph>
<glyph name="s" format="2">
  <advance width="492"/>
  <unicode hex="0073"/>
  <outline>
    <contour>
      <point x="256" y="528" type="curve" smooth="yes"/>
      <point x="321" y="528"/>
      <point x="365" y="519"/>
      <point x="416" y="487" type="curve"/>
      <point x="416" y="371" type="line"/>
      <point x="389" y="371" type="line"/>
      <point x="386" y="474" type="line"/>
      <point x="345" y="496"/>
      <point x="299" y="502"/>
      <point x="256" y="502" type="curve" smooth="yes"/>
      <point x="168" y="502"/>
      <point x="108" y="459"/>
      <point x="108" y="393" type="curve" smooth="yes"/>
      <point x="108" y="338"/>
      <point x="146" y="311"/>
      <point x="214" y="292" type="curve" smooth="yes"/>
      <point x="294" y="270" type="line" smooth="yes"/>
      <point x="360" y="253"/>
      <point x="438" y="216"/>
      <point x="438" y="136" type="curve" smooth="yes"/>
      <point x="438" y="31"/>
      <point x="355" y="-8"/>
      <point x="252" y="-8" type="curve" smooth="yes"/>
      <point x="167" y="-8"/>
      <point x="111" y="10"/>
      <point x="56" y="50" type="curve"/>
      <point x="70" y="77" type="line"/>
      <point x="120" y="42"/>
      <point x="181" y="18"/>
      <point x="250" y="18" type="curve" smooth="yes"/>
      <point x="340" y="18"/>
      <point x="406" y="47"/>
      <point x="406" y="136" type="curve" smooth="yes"/>
      <point x="406" y="187"/>
      <point x="356" y="221"/>
      <point x="286" y="240" type="curve" smooth="yes"/>
      <point x="206" y="262" type="line" smooth="yes"/>
      <point x="153" y="277"/>
      <point x="79" y="310"/>
      <point x="78" y="392" type="curve" smooth="yes"/>
      <point x="77" y="465"/>
      <point x="141" y="528"/>
    </contour>
  </outline>
</glyph>
<glyph name="t" format="2">
  <advance width="356"/>
  <unicode hex="0074"/>
  <outline>
    <contour>
      <point x="136" y="671" type="line"/>
      <point x="168" y="687" type="line"/>
      <point x="168" y="520" type="line"/>
      <point x="307" y="520" type="line"/>
      <point x="307" y="492" type="line"/>
      <point x="168" y="492" type="line"/>
      <point x="168" y="92" type="line" smooth="yes"/>
      <point x="168" y="45"/>
      <point x="199" y="19"/>
      <point x="246" y="19" type="curve"/>
      <point x="255" y="19"/>
      <point x="271" y="20"/>
      <point x="289" y="23" type="curve" smooth="yes"/>
      <point x="312" y="28" type="line"/>
      <point x="316" y="4" type="line"/>
      <point x="278" y="-6"/>
      <point x="259" y="-8"/>
      <point x="238" y="-8" type="curve" smooth="yes"/>
      <point x="179" y="-8"/>
      <point x="136" y="28"/>
      <point x="136" y="92" type="curve" smooth="yes"/>
      <point x="136" y="492" type="line"/>
      <point x="20" y="492" type="line"/>
      <point x="20" y="520" type="line"/>
      <point x="136" y="520" type="line"/>
    </contour>
  </outline>
</glyph>
<glyph name="u" format="2">
  <advance width="559"/>
  <unicode hex="0075"/>
  <anchor x="276" y="687" name="AccentCenter"/>
  <outline>
    <contour>
      <point x="40" y="520" type="line"/>
      <point x="135" y="520" type="line"/>
      <point x="135" y="186" type="line" smooth="yes"/>
      <point x="135" y="75"/>
      <point x="179" y="18"/>
      <point x="267" y="18" type="curve" smooth="yes"/>
      <point x="351" y="18"/>
      <point x="401" y="94"/>
      <point x="424" y="155" type="curve"/>
      <point x="424" y="494" type="line"/>
      <point x="368" y="494" type="line"/>
      <point x="368" y="520" type="line"/>
      <point x="456" y="520" type="line"/>
      <point x="456" y="24" type="line"/>
      <point x="516" y="34" type="line"/>
      <point x="516" y="7" type="line"/>
      <point x="424" y="-8" type="line"/>
      <point x="424" y="117" type="line"/>
      <point x="408" y="49"/>
      <point x="348" y="-8"/>
      <point x="261" y="-8" type="curve" smooth="yes"/>
      <point x="158" y="-8"/>
      <point x="104" y="61"/>
      <point x="104" y="191" type="curve" smooth="yes"/>
      <point x="104" y="494" type="line"/>
      <point x="40" y="494" type="line"/>
    </contour>
  </outline>
</glyph>
<glyph name="w" format="2">
  <advance width="789"/>
  <unicode hex="0077"/>
  <outline>
    <contour>
      <point x="4" y="520" type="line"/>
      <point x="163" y="520" type="line"/>
      <point x="163" y="494" type="line"/>
      <point x="100" y="494" type="line"/>
      <point x="251" y="32" type="line"/>
      <point x="382" y="494" type="line"/>
      <point x="317" y="494" type="line"/>
      <point x="317" y="520" type="line"/>
      <point x="468" y="520" type="line"/>
      <point x="468" y="494" type="line"/>
      <point x="417" y="494" type="line"/>
      <point x="568" y="32" type="line"/>
      <point x="699" y="494" type="line"/>
      <point x="634" y="494" type="line"/>
      <point x="634" y="520" type="line"/>
      <point x="785" y="520" type="line"/>
      <point x="785" y="494" type="line"/>
      <point x="727" y="494" type="line"/>
      <point x="585" y="0" type="line"/>
      <point x="543" y="0" type="line"/>
      <point x="396.8778991699219" y="448.3498229980469" type="line"/>
      <point x="268" y="0" type="line"/>
      <point x="226" y="0" type="line"/>
      <point x="65" y="494" type="line"/>
      <point x="4" y="494" type="line"/>
    </contour>
  </outline>
</glyph>
<glyph name="x" format="2">
  <advance width="536"/>
  <unicode hex="0078"/>
  <outline>
    <contour>
      <point x="20" y="520" type="line"/>
      <point x="20" y="494" type="line"/>
      <point x="78.4000015258789" y="494" type="line"/>
      <point x="249" y="259" type="line"/>
      <point x="80.30000305175781" y="26" type="line"/>
      <point x="20" y="26" type="line"/>
      <point x="20" y="0" type="line"/>
      <point x="184" y="0" type="line"/>
      <point x="184" y="26" type="line"/>
      <point x="116.30000305175781" y="26" type="line"/>
      <point x="267" y="235" type="line"/>
      <point x="418" y="26" type="line"/>
      <point x="352" y="26" type="line"/>
      <point x="352" y="0" type="line"/>
      <point x="516" y="0" type="line"/>
      <point x="516" y="26" type="line"/>
      <point x="458" y="26" type="line"/>
      <point x="281" y="262" type="line"/>
      <point x="454" y="494" type="line"/>
      <point x="516" y="494" type="line"/>
      <point x="516" y="520" type="line"/>
      <point x="352" y="520" type="line"/>
      <point x="352" y="494" type="line"/>
      <point x="418" y="494" type="line"/>
      <point x="268" y="286" type="line"/>
      <point x="118.4000015258789" y="494" type="line"/>
      <point x="184" y="494" type="line"/>
      <point x="184" y="520" type="line"/>
    </contour>
  </outline>
</glyph>
<glyph name="y" format="2">
  <advance width="532"/>
  <unicode hex="0079"/>
  <anchor x="293.2" y="687" name="AccentCenter"/>
  <outline>
    <contour>
      <point x="4" y="520" type="line"/>
      <point x="163" y="520" type="line"/>
      <point x="163" y="494" type="line"/>
      <point x="100" y="494" type="line"/>
      <point x="279" y="39" type="line"/>
      <point x="447" y="520" type="line"/>
      <point x="528" y="520" type="line"/>
      <point x="528" y="494" type="line"/>
      <point x="470" y="494" type="line"/>
      <point x="230" y="-192" type="line"/>
      <point x="151" y="-192" type="line"/>
      <point x="151" y="-166" type="line"/>
      <point x="204" y="-166" type="line"/>
      <point x="259" y="-5" type="line"/>
      <point x="65" y="494" type="line"/>
      <point x="4" y="494" type="line"/>
    </contour>
  </outline>
</glyph>
<glyph name="z" format="2">
  <advance width="433"/>
  <unicode hex="007A"/>
  <outline>
    <contour>
      <point x="44" y="520" type="line"/>
      <point x="393" y="520" type="line"/>
      <point x="393" y="494" type="line"/>
      <point x="78" y="28" type="line"/>
      <point x="393" y="28" type="line"/>
      <point x="393" y="0" type="line"/>
      <point x="40" y="0" type="line"/>
      <point x="40" y="28" type="line"/>
      <point x="354" y="494" type="line"/>
      <point x="44" y="494" type="line"/>
    </contour>
  </outline>
</glyph>
<glyph name="dotlessi" format="2">
  <advance width="263"/>
  <unicode hex="0131"/>
  <anchor x="135" y="687" name="AccentCenter"/>
  <outline>
    <contour>
      <point x="40" y="520" type="line"/>
      <point x="149" y="520" type="line"/>
      <point x="149" y="26" type="line"/>
      <point x="223" y="26" type="line"/>
      <point x="223" y="0" type="line"/>
      <point x="43" y="0" type="line"/>
      <point x="43" y="26" type="line"/>
      <point x="117" y="26" type="line"/>
      <point x="117" y="492" type="line"/>
      <point x="40" y="492" type="line"/>
    </contour>
  </outline>
</glyph>
